<svg id="logo-svg" width="266.5" height="46.15835220783843" viewBox="0 0 369.6666666666667 64.02703264351823"
    xmlns="http://www.w3.org/2000/svg" class="looka-1j8o68f">
        <defs id="SvgjsDefs6174">
        <linearGradient id="SvgjsLinearGradient6179">
            <stop id="SvgjsStop6180" stop-color="#00ddff" offset="0"></stop>
            <stop id="SvgjsStop6181" stop-color="#ff00d4" offset="1"></stop>
        </linearGradient>
        <linearGradient id="SvgjsLinearGradient6182">
            <stop id="SvgjsStop6183" stop-color="#00ddff" offset="0"></stop>
            <stop id="SvgjsStop6184" stop-color="#ff00d4" offset="1"></stop>
        </linearGradient>
    </defs>
    <g id="SvgjsG1803" featurekey="JKiIdh-0"
        transform="matrix(0.6435006435006434,0,0,0.6435006435006434,-6.595881595881595,-16.249034395549284)"
        fill="url(#SvgjsLinearGradient6179)">
        <g xmlns="http://www.w3.org/2000/svg">
            <g>

                <polygon 
                    points="139.75,120.37 90.927,120.37 90.927,115.87 135.25,115.87 135.25,45.372 14.75,45.372     14.75,115.87 59.073,115.87 59.073,120.37 10.25,120.37 10.25,40.872 139.75,40.872   ">
                </polygon>

                <rect x="23.532" y="68.854"  width="4.5" height="36.766">
                </rect>
                <path 
                    d="M116.759,45.376H33.241l22.14-20.125h39.238L116.759,45.376z M44.882,40.876h60.236L92.88,29.751H57.12    L44.882,40.876z">
                </path>
                <path 
                    d="M75,124.749c-19.496,0-35.356-15.86-35.356-35.356S55.504,54.035,75,54.035s35.356,15.861,35.356,35.357    S94.496,124.749,75,124.749z M75,58.535c-17.015,0-30.856,13.843-30.856,30.857S57.985,120.249,75,120.249    s30.856-13.842,30.856-30.856S92.015,58.535,75,58.535z">
                </path>
                <path 
                    d="M75,115.143c-14.198,0-25.75-11.552-25.75-25.75S60.802,63.643,75,63.643s25.75,11.552,25.75,25.75    S89.198,115.143,75,115.143z M75,68.143c-11.718,0-21.25,9.532-21.25,21.25s9.532,21.25,21.25,21.25s21.25-9.532,21.25-21.25    S86.718,68.143,75,68.143z">
                </path>
                <path 
                    d="M64.75,89.393h-4.5c0-8.133,6.616-14.75,14.75-14.75v4.5C69.349,79.143,64.75,83.74,64.75,89.393z">
                </path>
                <path 
                    d="M130.357,65.183H115.44V50.267h14.917V65.183z M119.94,60.683h5.917v-5.916h-5.917V60.683z">
                </path>
                <rect x="17.97" y="33.063"  width="15.625" height="4.5"></rect>
            </g>
        </g>
    </g>
    <g id="SvgjsG1804" featurekey="A7DQL5-0"
        transform="matrix(3.6924212428595475,0,0,3.6924212428595475,103,-12.655865224596328)" 
        fill="url(#SvgjsLinearGradient6179)">
        <path
            d="M0 4.24 l0 15.76 l0.52 0 l0 -15.76 l-0.52 0 z M10.100000000000001 4.58 l-0.000019531 11.56 c0 0.36 0.0066602 0.76 0.02 1.2 s0.02 0.66666 0.02 0.68 c-0.02666 -0.04 -0.12332 -0.25666 -0.28998 -0.65 s-0.33 -0.74334 -0.49 -1.05 l-0.28 -0.54 l-0.72 0 l2.2 4.22 l0.18 0 l0 -15.42 l-0.64 0 z M4.48 7.9399999999999995 l0.27998 0.54 l0.72 0 l-2.22 -4.24 l-0.14 0 l0 15.46 l0.62 0 l0 -11.6 c0 -0.33334 -0.0066602 -0.72334 -0.02 -1.17 s-0.02 -0.67666 -0.02 -0.69 c0.01334 0.04 0.10668 0.26 0.28002 0.66 s0.34 0.74666 0.5 1.04 z M15.42 11.02 l1.78 1.66 c0.56 0.52 1 1.0767 1.32 1.67 s0.48 1.19 0.48 1.79 l0 0.26 c0.01334 0.42666 -0.04 0.80666 -0.16 1.14 l0.74 0 c0.10666 -0.36 0.15332 -0.73334 0.13998 -1.12 l0 -0.28 c0 -0.72 -0.18334 -1.4067 -0.55 -2.06 s-0.87666 -1.2933 -1.53 -1.92 l-1.72 -1.62 c-0.54666 -0.52 -0.99666 -1.0067 -1.35 -1.46 s-0.53 -1.02 -0.53 -1.7 l0 -0.12 c0 -0.70666 0.19666 -1.2767 0.59 -1.71 s0.94334 -0.65 1.65 -0.65 c0.50666 0 0.92 0.07666 1.24 0.23 s0.64666 0.38334 0.98 0.69 l0.46 -0.52 c-0.37334 -0.34666 -0.75668 -0.60666 -1.15 -0.78 s-0.90334 -0.26 -1.53 -0.26 c-0.81334 0 -1.5033 0.26334 -2.07 0.79 s-0.85 1.2567 -0.85 2.19 l0 0.16 c0 0.76 0.19 1.41 0.57 1.95 s0.87666 1.0967 1.49 1.67 z M19.3 18.3 l-0.82002 0 c-0.46666 0.68 -1.2133 1.0267 -2.24 1.04 c-0.34666 0 -0.66 -0.04 -0.94 -0.12 l0 0.7 c0.28 0.05334 0.59334 0.08 0.94 0.08 c0.72 0 1.34 -0.14666 1.86 -0.44 s0.92 -0.71334 1.2 -1.26 z M28.18 4.5 l-0.000019531 -0.26 l-5.86 0 l0 0.64 l3.38 0 l0 15.12 l0.7 0 l0 -15.12 l1.8 0 c-0.02666 -0.21334 -0.03332 -0.34 -0.01998 -0.38 z M28.7 4.24 l0 0.64 l1.1 0 l0 -0.64 l-1.1 0 z M37.739999999999995 6.140000000000001 c0 0.08 0.23666 0.84334 0.71 2.29 s0.99 3.03 1.55 4.75 s1.3133 3.9934 2.26 6.82 l0.86 0 l-5.3 -15.76 l-0.16 0 l-5.26 15.76 l0.82 0 z M37.379999999999995 15.52 l-0.72 0 l1.2 4.48 l0.72 0 z M47.1 4.24 l-1.38 0 l0 0.64 l0.9 0 l0.44 0 c1.64 0 2.8734 0.47334 3.7 1.42 s1.24 2.18 1.24 3.7 l0 0.22 c0 1.4933 -0.41334 2.7134 -1.24 3.66 s-2.06 1.42 -3.7 1.42 l-0.64 0 l0 0 l-0.44 0 l-0.22 0 l-0.04 0 l0 4.7 l0.7 0 l0 -4.04 l0.68 0 c1.84 0 3.2366 -0.54334 4.19 -1.63 s1.43 -2.45 1.43 -4.09 l0 -0.26 c0 -1.64 -0.48334 -3.0066 -1.45 -4.1 s-2.3566 -1.64 -4.17 -1.64 z M55.32 4.24 l0 15.76 l0.52 0 l0 -15.76 l-0.52 0 z M65.38 19.96 l0.039942 -0.63998 c-1.96 -0.13334 -3.52 -0.94668 -4.68 -2.44 c-1.1067 -1.3867 -1.66 -3.06 -1.66 -5.02 c0 -1.0267 0.16666 -1.9167 0.5 -2.67 s0.83334 -1.4833 1.5 -2.19 c1.3333 -1.4 3 -2.1 5 -2.1 c1.2133 0 2.3066 0.26 3.28 0.78 s1.7667 1.2467 2.38 2.18 l0.48 -0.38 c-0.66666 -1.0133 -1.5333 -1.8067 -2.6 -2.38 c-1.0133 -0.54666 -2.16 -0.81332 -3.44 -0.79998 c-1.08 0 -2.0934 0.18334 -3.04 0.55 s-1.78 0.93 -2.5 1.69 c-0.72 0.77334 -1.2633 1.5733 -1.63 2.4 s-0.55 1.8 -0.55 2.92 c0.01334 2.12 0.62 3.9334 1.82 5.44 c1.28 1.6133 2.98 2.5 5.1 2.66 z M66.6 19.98002 c1.0933 -0.06666 2.0934 -0.32664 3 -0.77998 c1.04 -0.53334 1.9133 -1.2867 2.62 -2.26 l-0.46 -0.4 c-0.64 0.88 -1.4467 1.5733 -2.42 2.08 c-0.84 0.42666 -1.76 0.66666 -2.76 0.72 z">
        </path>
    </g>
</svg>